<svg width="50" height="50" viewBox="0 0 50 50" fill="none" xmlns="http://www.w3.org/2000/svg">
<rect width="50" height="50" rx="25" fill="#EAF1FD"/>
<path d="M16 16H18L18.4 18M20 26H30L34 18H18.4M20 26L18.4 18M20 26L17.7071 28.2929C17.0771 28.9229 17.5233 30 18.4142 30H30M30 30C28.8954 30 28 30.8954 28 32C28 33.1046 28.8954 34 30 34C31.1046 34 32 33.1046 32 32C32 30.8954 31.1046 30 30 30ZM22 32C22 33.1046 21.1046 34 20 34C18.8954 34 18 33.1046 18 32C18 30.8954 18.8954 30 20 30C21.1046 30 22 30.8954 22 32Z" stroke="#7BA2E9" stroke-width="2" stroke-linecap="round" stroke-linejoin="round"/>
</svg>
