<svg width="48" height="46" viewBox="0 0 48 46" fill="none" xmlns="http://www.w3.org/2000/svg">
<rect width="48" height="45.3333" rx="22.6667" fill="#EAF1FD"/>
<path d="M16 30.6667V31.3667C16 31.9222 15.8111 32.3889 15.4333 32.7667C15.0556 33.1444 14.5778 33.3333 14 33.3333C13.4444 33.3333 12.972 33.1387 12.5827 32.7493C12.1933 32.36 11.9991 31.888 12 31.3333V21.3333L14.8 13.3333C14.9333 12.9333 15.172 12.6111 15.516 12.3667C15.86 12.1222 16.2436 12 16.6667 12H31.3333C31.7556 12 32.1391 12.1222 32.484 12.3667C32.8289 12.6111 33.0676 12.9333 33.2 13.3333L36 21.3333V31.3667C36 31.9222 35.8111 32.3889 35.4333 32.7667C35.0556 33.1444 34.5778 33.3333 34 33.3333C33.4444 33.3333 32.9724 33.1387 32.584 32.7493C32.1956 32.36 32.0009 31.888 32 31.3333V30.6667H16ZM15.7333 18.6667H32.2667L30.8667 14.6667H17.1333L15.7333 18.6667ZM18 26.6667C18.5556 26.6667 19.028 26.472 19.4173 26.0827C19.8067 25.6933 20.0009 25.2213 20 24.6667C20 24.1111 19.8053 23.6387 19.416 23.2493C19.0267 22.86 18.5547 22.6658 18 22.6667C17.4444 22.6667 16.972 22.8613 16.5827 23.2507C16.1933 23.64 15.9991 24.112 16 24.6667C16 25.2222 16.1947 25.6947 16.584 26.084C16.9733 26.4733 17.4453 26.6676 18 26.6667ZM30 26.6667C30.5556 26.6667 31.028 26.472 31.4173 26.0827C31.8067 25.6933 32.0009 25.2213 32 24.6667C32 24.1111 31.8053 23.6387 31.416 23.2493C31.0267 22.86 30.5547 22.6658 30 22.6667C29.4444 22.6667 28.972 22.8613 28.5827 23.2507C28.1933 23.64 27.9991 24.112 28 24.6667C28 25.2222 28.1947 25.6947 28.584 26.084C28.9733 26.4733 29.4453 26.6676 30 26.6667Z" fill="#7BA2E9"/>
</svg>
