<svg width="54" height="53" viewBox="0 0 54 53" fill="none" xmlns="http://www.w3.org/2000/svg">
<rect x="0.600006" width="52.8" height="52.8" rx="26.4" fill="#EAF1FD"/>
<path d="M12.6 13.8C12.6 12.8044 13.4044 12 14.4 12H39.6C40.5956 12 41.4 12.8044 41.4 13.8C41.4 14.7956 40.5956 15.6 39.6 15.6V37.2C40.5956 37.2 41.4 38.0044 41.4 39C41.4 39.9956 40.5956 40.8 39.6 40.8H29.7V38.1C29.7 36.6094 28.4906 35.4 27 35.4C25.5094 35.4 24.3 36.6094 24.3 38.1V40.8H14.4C13.4044 40.8 12.6 39.9956 12.6 39C12.6 38.0044 13.4044 37.2 14.4 37.2V15.6C13.4044 15.6 12.6 14.7956 12.6 13.8ZM18 18.3V20.1C18 20.595 18.405 21 18.9 21H20.7C21.195 21 21.6 20.595 21.6 20.1V18.3C21.6 17.805 21.195 17.4 20.7 17.4H18.9C18.405 17.4 18 17.805 18 18.3ZM26.1 17.4C25.605 17.4 25.2 17.805 25.2 18.3V20.1C25.2 20.595 25.605 21 26.1 21H27.9C28.395 21 28.8 20.595 28.8 20.1V18.3C28.8 17.805 28.395 17.4 27.9 17.4H26.1ZM32.4 18.3V20.1C32.4 20.595 32.805 21 33.3 21H35.1C35.595 21 36 20.595 36 20.1V18.3C36 17.805 35.595 17.4 35.1 17.4H33.3C32.805 17.4 32.4 17.805 32.4 18.3ZM18.9 22.8C18.405 22.8 18 23.205 18 23.7V25.5C18 25.995 18.405 26.4 18.9 26.4H20.7C21.195 26.4 21.6 25.995 21.6 25.5V23.7C21.6 23.205 21.195 22.8 20.7 22.8H18.9ZM25.2 23.7V25.5C25.2 25.995 25.605 26.4 26.1 26.4H27.9C28.395 26.4 28.8 25.995 28.8 25.5V23.7C28.8 23.205 28.395 22.8 27.9 22.8H26.1C25.605 22.8 25.2 23.205 25.2 23.7ZM33.3 22.8C32.805 22.8 32.4 23.205 32.4 23.7V25.5C32.4 25.995 32.805 26.4 33.3 26.4H35.1C35.595 26.4 36 25.995 36 25.5V23.7C36 23.205 35.595 22.8 35.1 22.8H33.3ZM31.05 33.6C31.7981 33.6 32.4169 32.9869 32.2313 32.2613C31.635 29.9269 29.52 28.2 27 28.2C24.48 28.2 22.3594 29.9269 21.7688 32.2613C21.5831 32.9813 22.2075 33.6 22.95 33.6H31.05Z" fill="#7BA2E9"/>
</svg>
