<svg width="17" height="18" viewBox="0 0 17 18" fill="none" xmlns="http://www.w3.org/2000/svg">
<path d="M14.4 1.8H13.5V0H11.7V1.8H4.5V0H2.7V1.8H1.8C0.801 1.8 0.00899999 2.61 0.00899999 3.6L0 16.2C0 16.6774 0.189642 17.1352 0.527208 17.4728C0.864773 17.8104 1.32261 18 1.8 18H14.4C15.39 18 16.2 17.19 16.2 16.2V3.6C16.2 2.61 15.39 1.8 14.4 1.8ZM14.4 16.2H1.8V7.2H14.4V16.2ZM14.4 5.4H1.8V3.6H14.4V5.4ZM5.4 10.8H3.6V9H5.4V10.8ZM9 10.8H7.2V9H9V10.8ZM12.6 10.8H10.8V9H12.6V10.8ZM5.4 14.4H3.6V12.6H5.4V14.4ZM9 14.4H7.2V12.6H9V14.4ZM12.6 14.4H10.8V12.6H12.6V14.4Z" fill="#0071BC"/>
</svg>
